<?xml version="1.0" encoding="utf-8"?>
<!-- Generator: Adobe Illustrator 22.1.0, SVG Export Plug-In . SVG Version: 6.00 Build 0)  -->
<svg version="1.1" id="Layer_1" xmlns="http://www.w3.org/2000/svg" xmlns:xlink="http://www.w3.org/1999/xlink" x="0px" y="0px"
	 viewBox="0 0 271 135" style="enable-background:new 0 0 271 135;" xml:space="preserve">
<style type="text/css">
	.st0{fill:#BFA68C;}
	.st1{fill:#A5723D;}
	.st2{fill-rule:evenodd;clip-rule:evenodd;fill:#231F20;}
	.st3{fill:#A78B6B;}
	.st4{fill-rule:evenodd;clip-rule:evenodd;fill:#BFA68C;}
</style>
<g>
	<path class="st0" d="M268.4,65.1l-0.2-2.6l-0.3-2.5l-0.4-2.4l-0.6-2.3l-0.7-2.2l-0.9-2.1l-1-2l-1.2-2l-1.3-1.9l-1.5-1.8l-1.6-1.6
		l-1.8-1.6l-1.9-1.5l-2.3-1.5l-0.6-0.4V36V25.9h-66.6h-0.5l-0.4-0.4l-2.3-2.5l-1.2-1.2l-2.6-2.4l-2.7-2.2l-2.8-2.1l-2.9-1.9l-3-1.8
		l-3.1-1.6l-3.2-1.4l-3.3-1.3l-1.7-0.6l-3.4-1l-1.7-0.4l-1.8-0.4L147,4.4l-1.8-0.3l-1.8-0.2l-1.8-0.2l-1.8-0.1l-1.8-0.1l-1.8,0
		l-1.9,0l-1.8,0.1l-1.8,0.1l-1.8,0.2l-1.8,0.2L125,4.4l-1.8,0.3l-1.8,0.4l-1.7,0.4l-3.4,1l-1.7,0.6l-3.3,1.3l-3.2,1.4l-3.1,1.6
		l-3,1.8l-2.9,1.9l-2.8,2.1l-2.7,2.2l-2.6,2.4l-2.4,2.5l-1,1.2l-0.4,0.4h-0.6H20.1V36v0.7l-0.6,0.4l-2.3,1.5l-2,1.5l-1.8,1.6
		l-1.6,1.7L10.4,45L9,46.8l-1.2,2l-1,2L5.9,53l-0.7,2.2l-0.6,2.3L4.2,60l-0.3,2.5l-0.2,2.6l-0.1,2.7l0.1,2.7l0.2,2.6l0.3,2.5
		l0.4,2.4l0.6,2.3l0.7,2.2l0.9,2.2l1,2l1.2,2l1.3,1.9l1.5,1.8l1.6,1.6l1.8,1.6l2,1.5l2.3,1.5l0.6,0.4v0.7v10.1h66.6h0.5l0.4,0.4
		l2.3,2.5l2.5,2.4l2.6,2.3l2.7,2.1l2.9,2l3,1.8l3.1,1.7l3.2,1.5l3.3,1.4l3.4,1.2l1.7,0.5l1.7,0.5l1.7,0.4l1.8,0.4l1.8,0.3l1.8,0.3
		l1.8,0.2l1.8,0.2l1.8,0.1l1.8,0.1l1.9,0l1.9,0l1.8-0.1l1.8-0.1l1.8-0.2l1.8-0.2l1.8-0.3l1.7-0.3l3.5-0.8l1.7-0.5l3.4-1.1l1.6-0.6
		l3.3-1.4l3.2-1.5l1.5-0.8l3-1.8l2.9-1.9l2.8-2.1l2.7-2.2l2.6-2.4l2.4-2.5l1-1.2l0.4-0.4h0.6h66.6V99.6v-0.7l0.6-0.4l2.3-1.5
		l1.9-1.5l1.8-1.6l1.6-1.7l1.5-1.8l1.3-1.9l1.2-2l1-2l0.9-2.1l0.7-2.2l0.6-2.3l0.4-2.4l0.3-2.5l0.2-2.6l0.1-2.7L268.4,65.1z
		 M266.4,70.4l-0.2,2.5l-0.3,2.4l-0.4,2.3l-0.5,2.2l-0.7,2.1l-0.8,2l-1,1.9l-1.1,1.8l-1.2,1.7l-1.4,1.6l-1.5,1.5l-1.7,1.5l-1.8,1.4
		l-2.3,1.5l-0.6,0.4l-0.9,0.6v1.1v0.7v8.1h-64.6h-0.6h-0.9l-0.6,0.7l-0.4,0.4l-1,1.1l-2.4,2.4l-2.5,2.3l-2.6,2.2l-2.7,2l-2.8,1.9
		l-2.9,1.7l-1.5,0.8l-3.1,1.5l-3.2,1.3l-1.6,0.6l-3.3,1.1l-1.6,0.4l-3.4,0.8l-1.7,0.3l-1.7,0.3l-1.8,0.2l-1.8,0.2l-1.8,0.1l-1.8,0.1
		l-1.8,0l-1.8,0l-1.8-0.1l-1.8-0.1l-1.8-0.2l-1.7-0.2l-1.7-0.3l-1.7-0.3l-1.7-0.4l-1.7-0.4l-1.7-0.5l-1.6-0.5l-3.3-1.2l-3.2-1.3
		l-3.1-1.5l-3-1.6l-2.9-1.8l-2.8-1.9l-2.6-2.1l-2.5-2.2l-2.4-2.3l-2.3-2.4l-0.4-0.4l-0.6-0.6h-0.9h-0.5H22.1v-8.1v-0.7v-1.1
		l-0.9-0.6l-0.6-0.4l-2.2-1.4L16.6,94l-1.7-1.5l-1.5-1.5l-1.4-1.6l-1.2-1.7l-1.1-1.8l-1-1.9l-0.8-2l-0.7-2.1l-0.6-2.2l-0.4-2.3
		L5.9,73l-0.2-2.5l-0.1-2.6l0.1-2.6l0.2-2.5l0.3-2.4L6.6,58l0.5-2.2l0.7-2.1l0.8-2l1-1.9l1.1-1.8l1.2-1.7l1.4-1.6l1.5-1.5l1.7-1.5
		l1.8-1.4l2.3-1.5l0.6-0.4l0.9-0.6v-1.1V36v-8.1h64.6h0.6h0.9l0.6-0.7l0.4-0.4l1-1.1l2.4-2.4L95,21l2.6-2.2l2.7-2l2.8-1.9l2.9-1.7
		l3-1.6l3.1-1.4l3.2-1.2l1.6-0.5l3.4-1l1.6-0.4l1.7-0.4l1.7-0.3l1.7-0.3l1.7-0.2l1.8-0.2l1.8-0.1l1.8-0.1l1.8,0l1.8,0l1.8,0.1
		l1.8,0.1l1.8,0.2l1.8,0.2l1.7,0.3l1.7,0.3l1.7,0.4l1.7,0.4l3.4,1l1.6,0.5l3.2,1.2l3.1,1.4l3,1.6l2.9,1.7l2.8,1.9l2.7,2l2.6,2.2
		l2.5,2.3l1.1,1.1l2.3,2.5l0.4,0.4l0.6,0.6h0.9h0.5h64.6V36v0.7v1.1l0.9,0.6l0.6,0.4l2.2,1.4l1.8,1.4l1.7,1.5l1.5,1.5l1.4,1.6
		l1.2,1.7l1.1,1.8l1,1.9l0.8,2l0.7,2.1l0.6,2.2l0.4,2.3l0.3,2.4l0.2,2.5l0.1,2.6L266.4,70.4z"/>
	<path class="st1" d="M271.6,64.9l-0.2-2.8l-0.3-2.7l-0.5-2.6l-0.6-2.5l-0.8-2.5l-1-2.4l-1.1-2.3l-0.6-1.1l-0.7-1.1l-0.7-1l-0.8-1
		l-0.8-1l-0.9-1l-1.8-1.8l-2-1.7l-2.1-1.6l-1.5-1V22.6h-68.9l-3.1-3.2l-2.7-2.5l-2.8-2.3l-2.9-2.2l-3.1-2l-1.6-1l-3.2-1.8l-1.6-0.8
		l-3.4-1.5l-1.7-0.7l-1.7-0.6l-1.8-0.6l-1.8-0.5l-1.8-0.5L151.2,2l-1.8-0.4l-1.9-0.3l-1.9-0.3l-1.9-0.2l-1.9-0.2l-1.9-0.1L138,0.3
		l-2,0l-2,0l-1.9,0.1l-1.9,0.1l-1.9,0.2l-1.9,0.2l-1.9,0.3l-1.9,0.3L120.8,2L119,2.4l-1.8,0.5l-1.8,0.5l-1.8,0.6l-1.7,0.6l-1.7,0.7
		l-1.7,0.7l-1.7,0.8l-1.6,0.8l-1.6,0.9l-3.2,1.9l-3.1,2l-2.9,2.2L91.5,17l-2.7,2.5l-2.5,2.6l-0.5,0.6H16.9v12.3l-2.6,1.8l-2.1,1.6
		l-1.9,1.8L9.5,41l-0.9,1l-0.8,1L7,44l-0.7,1l-0.7,1.1L5,47.2l-1.1,2.3l-1,2.4l-0.8,2.5l-0.6,2.5L1,59.5l-0.3,2.7L0.4,65l-0.1,2.9
		l0.1,2.9l0.2,2.8L1,76.2l0.5,2.6l0.6,2.5l0.8,2.4l1,2.4l0.6,1.2L5,88.4l1.3,2.2l0.7,1l0.8,1l0.8,1l0.9,1l1.8,1.8l2,1.7l2.1,1.6
		l1.5,1V113h68.9l3.1,3.2l2.7,2.5l2.8,2.3l2.9,2.2l1.5,1l3.1,1.9l3.2,1.8l1.6,0.8l1.7,0.8l1.7,0.7l1.7,0.7l1.7,0.6l1.8,0.6l1.8,0.5
		l1.8,0.5l1.8,0.5l1.8,0.4l1.9,0.3l1.9,0.3l1.9,0.2l1.9,0.2l1.9,0.1l1.9,0.1l2,0l2,0l1.9-0.1l1.9-0.1l1.9-0.2l1.9-0.2l1.9-0.3
		l1.9-0.3l1.8-0.4l1.8-0.5l1.8-0.5l1.8-0.5l1.8-0.6l1.7-0.6l1.7-0.7l1.7-0.7l1.7-0.8l3.3-1.7l1.6-0.9l3.1-1.9l3-2.1l2.9-2.3l2.7-2.4
		l2.6-2.5l1.7-1.9h68.9v-12.3l2.6-1.8l2.1-1.6l1.9-1.8l1.7-1.9l1.6-2l0.7-1l0.7-1.1l0.6-1.1l0.6-1.1l0.5-1.2l1-2.4l0.8-2.5l0.6-2.5
		l0.5-2.6l0.3-2.7l0.2-2.8l0.1-2.9L271.6,64.9z M269.4,73.2l-0.3,2.6l-0.5,2.5l-0.6,2.4l-0.8,2.3l-0.9,2.2l-1.1,2.1l-1.2,2l-1.4,1.9
		l-1.6,1.8l-1.7,1.7l-1.9,1.6l-2,1.5l-2.4,1.5V111h-67.8l-1.1,1.2l-2.5,2.5l-2.6,2.4l-2.7,2.3l-2.8,2.1l-3,2l-3.1,1.8l-1.6,0.8
		l-3.2,1.6l-3.3,1.4l-1.7,0.6l-3.4,1.1l-1.8,0.5l-3.6,0.8l-1.8,0.3l-1.8,0.3l-1.8,0.2l-1.9,0.2l-1.9,0.1l-1.9,0.1l-1.9,0l-1.9,0
		l-1.9-0.1l-1.9-0.1l-1.9-0.2l-1.8-0.2l-1.8-0.3l-1.8-0.3l-1.8-0.4l-1.8-0.4l-1.8-0.5l-1.7-0.5l-3.4-1.2l-3.3-1.4l-3.2-1.6l-3.1-1.7
		l-3-1.9l-2.9-2l-2.8-2.2l-2.7-2.3l-2.5-2.5l-2.3-2.5H18.9V99.6l-2.3-1.5l-2-1.5L12.7,95L11,93.3l-1.6-1.8L8,89.5l-1.2-2l-1.1-2.1
		l-0.9-2.3L4,80.8l-0.6-2.4l-0.5-2.5l-0.3-2.6l-0.2-2.7l-0.1-2.8L2.4,65l0.2-2.7l0.3-2.6l0.5-2.5L4,54.9l0.8-2.3l0.9-2.2l1.1-2.1
		l1.2-2l1.4-1.9l1.6-1.8l1.7-1.7l1.9-1.6l2-1.5l2.4-1.5V24.6h67.8l1.1-1.2l2.5-2.5l2.6-2.4l2.7-2.3l2.8-2.1l3-2l3.1-1.8l3.2-1.6
		l3.3-1.5l3.4-1.3l1.7-0.6l3.5-1l1.8-0.4l1.8-0.4l1.8-0.3l1.8-0.3l1.8-0.2l1.9-0.2l1.9-0.1l1.9-0.1l1.9,0l1.9,0l1.9,0.1l1.9,0.1
		l1.9,0.2l1.8,0.2l1.8,0.3l1.8,0.3l1.8,0.4l1.8,0.4l3.5,1l1.7,0.6l3.4,1.3l3.3,1.5l3.2,1.6l3.1,1.8l3,2l2.8,2.1l2.7,2.3l2.6,2.4
		l1.2,1.3l2.3,2.5h67.8V36l2.3,1.5l2,1.5l1.9,1.6l1.7,1.7l1.6,1.8l1.4,1.9l1.2,2l1.1,2.1l0.9,2.2l0.8,2.3l0.6,2.4l0.5,2.5l0.3,2.6
		l0.2,2.7l0.1,2.8l-0.1,2.8L269.4,73.2z"/>
	<g>
		<path class="st2" d="M213.9,44c1.2-3.5,3.5-6.3,7.7-6.3c1.6,0,2.9,0.5,4,1.3v-0.4H236v22.8h-9c0.1,0.1,0.2,0.1,0.3,0.2
			c2.9,1.8,6.7,4.5,8.4,7.6c1.7,3.2,1.9,8.6,1.9,12.2c0,6.1-0.9,16.5-9.2,16.5c-1.9,0-3.5-0.6-4.9-1.7V97h-10.3V72.7h10.3v2.5
			c0,0.7,0,3.7,1.2,3.7c1,0,1-1.3,1-2.1c0-1.9-0.6-3.5-2.2-4.6l-4.1-2.8c-4.6-3.2-6.4-8-6.7-13.3h-1.5V85l-0.4,4.1
			c-0.6,5.9-4.8,8.8-10.5,8.8c-8.3,0-11.1-6.3-11.1-13.7v-28h-2.6V38.7h27.4V44L213.9,44z M201.9,56.2h-1.6V73
			c0,0.9,0.1,4.7,0.7,5.8c0.8-0.9,0.9-5.2,0.9-6.1V56.2L201.9,56.2z M224.7,56.2C224.7,56.2,224.7,56.2,224.7,56.2
			c-0.1,0-0.3,0-0.3,0c-0.2,0.2-0.2,0.9-0.2,1.1c0,1,0.4,1.8,1,2.6l-0.1-1.6C225.1,58,225,56.6,224.7,56.2L224.7,56.2z M163.8,78.9
			v-6.2H174v2.5c0,0.7,0,3.7,1.2,3.7c1,0,1-1.3,1-2.1c0-1.9-0.6-3.5-2.2-4.6l-4.1-2.8c-5.1-3.5-6.8-9-6.8-15c0-6,0.8-16.7,9-16.7
			c1.6,0,2.9,0.5,4,1.3v-0.4h10.3v22.8h-9c0.1,0.1,0.2,0.1,0.3,0.2c2.9,1.8,6.7,4.5,8.4,7.6c1.7,3.2,1.9,8.6,1.9,12.2
			c0,6.1-0.9,16.5-9.2,16.5c-1.9,0-3.5-0.6-4.9-1.7V97h-38.7v-6.5c-1.7,4.2-4.8,7.4-10.4,7.4c-4.6,0-8.8-1.5-10.6-6
			c-2.1-5.4-2.1-17.7-2.1-23.5c0-3.4,0-7.8,0.2-12.2H110V85l-0.4,4.1c-0.6,5.9-4.8,8.8-10.5,8.8c-8.3,0-11.1-6.3-11.1-13.7v-28h-2.6
			V38.7h27.4v12.3c0.3-2.2,0.6-4.3,1.1-6c1.2-4.1,3.8-7,8.3-7c1.4,0,2.7,0.4,3.7,1v-0.2h10.3v25.4h-10.3v-2.7c0-0.5-0.2-5-1-5
			c-0.5,0-0.6,0.3-0.7,0.8c-0.2,1.2-0.2,2.6-0.2,3.8c-0.1,2.8-0.1,5.6-0.1,8.4c0,1.4,0.1,8.2,1.2,9.5c0.7-0.4,0.8-4.1,0.8-4.5v-6.1
			h10.8V70c0,1.6,0.1,3.3,0.2,4.9c0.1,1.3,0.2,2.7,0.2,4c0,0,0,0,0,0h1l5.4-40.2h13.2l5.6,40.2H163.8L163.8,78.9z M100.8,56.2h-1.6
			V73c0,0.9,0.1,4.7,0.7,5.8c0.8-0.9,0.9-5.2,0.9-6.1V56.2L100.8,56.2z M150.8,78.9l-0.5-4.1h-3l-0.5,4.1H150.8L150.8,78.9z
			 M175.3,56.2C175.3,56.2,175.3,56.2,175.3,56.2c-0.1,0-0.3,0-0.3,0c-0.2,0.2-0.2,0.9-0.2,1.1c0,1,0.4,1.8,1,2.6l-0.1-1.6
			C175.7,58,175.6,56.6,175.3,56.2L175.3,56.2z M59.4,78.9h1l5.4-40.2H79l5.6,40.2h2.6V97H57.6v-6.5c-1.7,4.2-4.8,7.4-10.4,7.4
			c-4.6,0-8.8-1.5-10.6-6c-2.1-5.4-2.1-17.7-2.1-23.5c0-6.5-0.1-17.2,1.8-23.5c1.2-4.1,3.8-7,8.3-7c1.4,0,2.7,0.4,3.7,1v-0.2h10.3
			v25.4H48.3v-2.7c0-0.5-0.2-5-1-5c-0.5,0-0.6,0.3-0.7,0.8c-0.2,1.2-0.2,2.6-0.2,3.8c-0.1,2.8-0.1,5.6-0.1,8.4
			c0,1.4,0.1,8.2,1.2,9.5c0.7-0.4,0.8-4.1,0.8-4.5v-6.1H59V70c0,1.6,0.1,3.3,0.2,4.9C59.3,76.2,59.4,77.6,59.4,78.9
			C59.4,78.9,59.4,78.9,59.4,78.9L59.4,78.9z M73.2,78.9l-0.5-4.1h-3l-0.5,4.1H73.2L73.2,78.9z M71.5,65.8l-0.3-2.3l-0.3,2.3
			L71.5,65.8L71.5,65.8z M149.2,65.8l-0.3-2.3l-0.3,2.3L149.2,65.8L149.2,65.8z"/>
		<path class="st0" d="M50,43.6v-3.2h6.8v22H50v-1c0-4.5-0.9-6.7-2.7-6.7c-1.3,0-2.1,0.7-2.4,2.2c-0.1,0.9-0.2,2.3-0.2,4
			c-0.1,1.8-0.1,4.6-0.1,8.5c0,7.5,0.9,11.3,2.8,11.3c1.8,0,2.6-2.1,2.6-6.3V72v-2h7.3c0,1.2,0.1,2.9,0.2,5c0.1,2.1,0.2,3.4,0.2,3.9
			c0,11.5-3.5,17.3-10.4,17.3c-4.7,0-7.7-1.6-9.1-4.9c-1.3-3.3-2-10.9-2-22.9c0-11.5,0.6-19.1,1.7-23c1.1-3.9,3.3-5.8,6.6-5.8
			C46.9,39.5,48.8,40.9,50,43.6L50,43.6z M85.5,80.6v14.6H72.2V80.6h2.9l-0.9-7.5h-6l-0.9,7.5h3.1v14.6H59.3V80.6h2.6l5.4-40.2h10.2
			l5.6,40.2H85.5L85.5,80.6z M73.5,67.5l-2.3-16.9l-2.3,16.9L73.5,67.5L73.5,67.5z M111.1,40.4v14.1h-2.8v26.2v4.3l-0.4,4
			c-0.9,4.8-3.9,7.2-8.8,7.2c-6.2,0-9.3-4-9.3-12v-4.2V54.4h-2.6V40.4h12.2v14.1h-1.8V73c0,5.1,0.8,7.7,2.3,7.7
			c1.8,0,2.7-2.6,2.7-7.9V54.4h-1.7V40.4H111.1L111.1,40.4z M127.6,43.6v-3.2h6.8v22h-6.8v-1c0-4.5-0.9-6.7-2.7-6.7
			c-1.3,0-2.1,0.7-2.4,2.2c-0.1,0.9-0.2,2.3-0.2,4c-0.1,1.8-0.1,4.6-0.1,8.5c0,7.5,0.9,11.3,2.8,11.3c1.8,0,2.6-2.1,2.6-6.3V72v-2
			h7.3c0,1.2,0.1,2.9,0.2,5c0.1,2.1,0.2,3.4,0.2,3.9c0,11.5-3.5,17.3-10.4,17.3c-4.7,0-7.7-1.6-9.1-4.9c-1.3-3.3-2-10.9-2-22.9
			c0-11.5,0.6-19.1,1.7-23c1.1-3.9,3.3-5.8,6.6-5.8C124.6,39.5,126.4,40.9,127.6,43.6L127.6,43.6z M163.2,80.6v14.6h-13.3V80.6h2.9
			l-0.9-7.5h-6l-0.9,7.5h3.1v14.6H137V80.6h2.5l5.4-40.2h10.2l5.6,40.2H163.2L163.2,80.6z M151.1,67.5l-2.3-16.9l-2.3,16.9
			L151.1,67.5L151.1,67.5z M184.8,40.4v19.3h-7.3l-0.1-1.4c0-2.5-0.7-3.8-2.1-3.8c-1.5,0-2.2,1-2.2,2.9c0,2.2,1.3,4.1,3.9,5.7
			c4.1,2.5,6.7,4.8,7.8,6.9c1.1,2.1,1.7,5.9,1.7,11.4c0,9.9-2.5,14.8-7.5,14.8c-2.7,0-4.9-1.6-6.6-4.8v3.9h-6.8V74.4h6.8v0.7
			c0,3.6,1,5.4,2.9,5.4c1.8,0,2.7-1.3,2.7-3.8c0-2.6-1-4.6-3-6l-4.1-2.8c-4-2.7-6-7.2-6-13.6c0-10,2.4-15,7.3-15
			c2.5,0,4.4,1.6,5.8,4.8v-3.9H184.8L184.8,40.4z M212.2,40.4v14.1h-2.8v26.2v4.3l-0.4,4c-0.9,4.8-3.9,7.2-8.8,7.2
			c-6.2,0-9.3-4-9.3-12v-4.2V54.4h-2.6V40.4h12.2v14.1h-1.8V73c0,5.1,0.8,7.7,2.3,7.7c1.8,0,2.7-2.6,2.7-7.9V54.4h-1.7V40.4H212.2
			L212.2,40.4z M234.3,40.4v19.3h-7.3l-0.1-1.4c0-2.5-0.7-3.8-2.1-3.8c-1.5,0-2.2,1-2.2,2.9c0,2.2,1.3,4.1,3.9,5.7
			c4.1,2.5,6.7,4.8,7.8,6.9c1.1,2.1,1.7,5.9,1.7,11.4c0,9.9-2.5,14.8-7.5,14.8c-2.7,0-4.9-1.6-6.6-4.8v3.9h-6.8V74.4h6.8v0.7
			c0,3.6,1,5.4,2.9,5.4c1.8,0,2.7-1.3,2.7-3.8c0-2.6-1-4.6-3-6l-4.1-2.8c-4-2.7-6-7.2-6-13.6c0-10,2.4-15,7.3-15
			c2.5,0,4.4,1.6,5.8,4.8v-3.9H234.3L234.3,40.4z"/>
	</g>
	<path class="st3" d="M109.9,107.2l-0.2,0.1c-1,0.5-2,1.1-2.9,1.7l-0.2,0.1l-0.1-0.1c0.4-0.9,0.5-1.7,0.4-2.5
		c-0.1-0.8-0.5-1.3-1.1-1.8c-0.7-0.4-1.4-0.5-2.3-0.2c-1,0.4-2.1,1.4-3.3,3.2c-1,1.5-1.5,2.8-1.5,4c0,1.2,0.4,2.1,1.3,2.7
		c0.7,0.5,1.5,0.6,2.3,0.4c0.8-0.2,1.5-0.7,2.2-1.6c0.2-0.2,0.3-0.3,0.5-0.2c0.2,0.1,0.2,0.4,0,0.7c-0.3,0.5-0.8,1-1.4,1.4
		c-1.3,0.8-2.7,0.8-4.2-0.3c-1.4-0.9-2.1-2.1-2.3-3.6c-0.2-1.5,0.3-3.1,1.3-4.7c1-1.5,2.2-2.5,3.8-3c1.5-0.5,2.9-0.3,4.1,0.5
		c0.6,0.4,1.2,1,1.7,1.8c0.3,0.4,0.6,0.7,0.8,0.9c0.3,0.2,0.6,0.3,0.9,0.3L109.9,107.2L109.9,107.2z M106.7,107
		c-0.2-0.7-0.6-1.2-1-1.5c-1.4-0.9-2.9,0-4.6,2.6c-0.8,1.2-1.3,2.3-1.5,3.3c-0.2,1-0.1,1.8,0.3,2.4l-0.1,0.1
		c-0.5-0.5-0.7-1.3-0.6-2.4c0.2-1.1,0.7-2.3,1.5-3.5c1.8-2.7,3.4-3.6,4.9-2.6c0.5,0.3,0.8,0.9,1,1.6L106.7,107L106.7,107z
		 M105.8,114.2c-0.9,1.3-2,2-3.1,2.3c-1.1,0.3-2.2,0-3.4-0.8c-0.9-0.6-1.5-1.4-1.9-2.4l0-0.1c0.4,0.9,1.1,1.6,2,2.3
		c1,0.7,2.1,0.9,3.2,0.7c0.5-0.1,1-0.3,1.4-0.6c0.4-0.3,0.9-0.8,1.4-1.4l0.1-0.2L105.8,114.2L105.8,114.2z M110.3,107.9l-0.2,0.1
		c-1.2,0.6-2.3,1.2-3.1,1.8l-0.1-0.2l0.2-0.1c0.6-0.4,1.2-0.7,1.6-0.9l1.4-0.7l0.2-0.1L110.3,107.9L110.3,107.9z M115,111.4
		l-0.1-0.1c-0.4-0.5-0.9-0.9-1.4-1.1c-1.5-0.6-2.9,0.6-4.2,3.6c-0.9,2.2-1,3.9-0.4,5l-0.1,0.1c-0.4-0.7-0.6-1.4-0.6-2.1
		c0-0.8,0.3-1.7,0.8-2.9c1.3-3.2,2.8-4.5,4.6-3.8C114.4,110.2,114.9,110.7,115,111.4L115,111.4z M114,108.6c1.4,0.6,2.3,1.6,2.7,3
		c0.4,1.4,0.2,3-0.5,4.8c-0.7,1.7-1.7,2.9-2.9,3.6c-1.3,0.7-2.6,0.7-4,0.1c-1.1-0.5-2-1.2-2.5-2.3c-0.9-1.6-0.9-3.4,0-5.5
		c0.7-1.8,1.7-3,3-3.7C111.1,108,112.5,107.9,114,108.6L114,108.6z M113.7,109.3c-2-0.8-3.7,0.5-5.1,4c-1.3,3.2-1,5.2,0.9,6
		c0.9,0.4,1.8,0.2,2.6-0.4c0.8-0.7,1.6-1.8,2.2-3.4c0.8-1.9,1.1-3.2,0.9-4.2C115.1,110.3,114.6,109.7,113.7,109.3L113.7,109.3z
		 M116.6,110.1c0.7,0.7,1.1,1.7,1.1,2.9c0.1,1.2-0.1,2.4-0.7,3.7c-0.8,1.9-1.9,3.2-3.3,4c-1.4,0.8-2.9,0.8-4.5,0.2
		c-1-0.4-1.8-1.1-2.4-2.1l0,0c0.5,0.8,1.3,1.5,2.4,1.9c1.5,0.6,2.9,0.5,4.3-0.2c1.4-0.7,2.4-1.9,3.1-3.7c0.5-1.3,0.8-2.5,0.7-3.6
		C117.5,112,117.2,111,116.6,110.1L116.6,110.1L116.6,110.1z M130.6,113.3l-1.5,1l-2.1,9.5l0.9,1.3l-4.3-0.9l1.5-0.8l1.4-6.2
		l-4.7,7.4l-0.9-0.2l0-0.3l0.8,0.2l5-7.9l0.3-1.4l-5.5,8.8l-0.6-0.1l-0.9-8l-1.1,4.9c-0.1,0.7-0.2,1.1-0.2,1.4c0,0.3,0.2,0.6,0.4,1
		l0.6,1.2l-4.8-1.1l-0.1-0.3l4.5,1l-0.2-0.6l-4.1-0.9l0.2-0.1c0.8-0.2,1.3-0.5,1.6-0.9c0.3-0.3,0.5-0.9,0.7-1.8l1.7-7.7l-1-1.4
		l4.8,1l-1.6,0.9l0.9,8.3l0.5-0.7l-0.9-7.4l1.4-0.6l0.2,0.2l-1.3,0.6l0.8,6.9l3.8-6.1l-0.9-1.5L130.6,113.3L130.6,113.3z
		 M119.6,113.3l-1.4,6.7c-0.2,1-0.3,1.7-0.2,2.2c0.1,0.4,0.5,0.8,1,1.1L119,123c-0.5-0.6-0.7-1.2-0.5-2l0.1-0.7l1.2-5.5L119.6,113.3
		L119.6,113.3z M131,114.2l-1.2,0.5l-2,9.3l1.2,2.2l-4.9-1.1l-0.1-0.3l4.5,1l-1-1.7l2.1-9.6l1.3-0.5L131,114.2L131,114.2z
		 M129.9,113.3l4.3,0c1.8,0,3.1,0.3,3.9,0.8c1,0.6,1.5,1.5,1.4,2.6c0,0.7-0.2,1.3-0.6,1.8c-0.4,0.5-0.9,0.9-1.6,1.1
		c-0.7,0.2-1.7,0.3-3.2,0.3l-1.2,0l0,4.6l1.2,1l-4.4,0l1.3-1.1l0-3.8c-0.1,0-0.1,0-0.2,0c-0.5,0-0.9,0.1-1.3,0.3l-0.1-0.2
		c0.4-0.2,0.8-0.4,1.1-0.4l0.3,0l0.1,0l0-0.5c-0.1,0-0.2,0-0.3,0c-0.7,0-1.2,0.2-1.6,0.5l-0.1-0.1c0.4-0.7,1-1.1,1.9-1.1l0.2,0
		l0-4.6L129.9,113.3L129.9,113.3z M133,114.3l0,4.7l0.1,0l0.2,0c0,0,0.1,0,0.1,0l0-4.2l1,0c0.8,0,1.4,0.1,1.7,0.2
		c0.3,0.1,0.6,0.4,0.8,0.9c-0.2-0.3-0.5-0.5-0.9-0.7c-0.3-0.1-0.8-0.2-1.5-0.2l-1,0l0,4c1.3,0,2.2-0.2,2.8-0.5
		c0.6-0.4,0.9-0.9,0.9-1.7c0-0.9-0.3-1.5-0.8-1.9c-0.5-0.4-1.4-0.6-2.5-0.6C133.8,114.2,133.4,114.2,133,114.3L133,114.3z
		 M139,114.3c0.4,0.2,0.7,0.5,0.9,1c0.2,0.5,0.3,1,0.3,1.6c0,1.4-0.5,2.4-1.6,2.9c-0.8,0.5-2.2,0.7-4.1,0.7c-0.3,0-0.6,0-0.8,0
		l0,3.9l1.5,1.8l-4.7,0l-0.3-0.3l4.5,0l-1.2-1.4l0-4.3c0.5,0,1.1,0.1,1.8,0.1c1.6,0,2.8-0.3,3.6-0.8c0.8-0.6,1.2-1.5,1.2-2.6
		c0-0.5-0.1-0.9-0.2-1.3C139.7,115.2,139.4,114.8,139,114.3L139,114.3z M139.3,113.2l4.5-0.5l-1.2,1.4l1.2,10.1l0.1,0l0.3,0l0.1,0
		l-1.2-10l0.9-1.1l0.2,0.2l-0.8,1l1.2,9.9c0.3,0,0.6,0,0.8-0.1c1-0.1,1.7-0.4,2.2-0.9c0.5-0.5,0.7-1.3,0.8-2.3
		c0.8,1.6,1.5,2.7,2.2,3.3l-9.8,1.2l1.2-1.2l-1.2-9.8L139.3,113.2L139.3,113.2z M151.5,123.9l-0.3,0.9l-9.8,1.2l-0.3-0.2l10-1.2
		l0.2-0.6c-0.8-0.8-1.5-1.6-2-2.6l-0.1-0.1l0.3,0.1l0.1,0.2C150.1,122.3,150.7,123.1,151.5,123.9L151.5,123.9L151.5,123.9z
		 M158.1,108.8L158,109c-0.4,0.9-0.6,2-0.6,3.1c-0.1-0.1-0.2-0.2-0.2-0.3c-0.6-0.6-1.1-1-1.5-1.1c-0.4-0.1-1.2,0-2.1,0.3
		c-0.4,0.1-1,0.3-1.6,0.6l1.3,4.2l0.6-0.2l-1.2-3.7c0.4-0.2,0.9-0.4,1.3-0.5c0.8-0.2,1.4-0.3,1.8-0.3c0.4,0,0.8,0.3,1.3,0.6
		c-0.1,0-0.2-0.1-0.2-0.1c-0.6-0.2-1-0.3-1.3-0.3c-0.2,0-0.7,0.1-1.3,0.3c-0.2,0.1-0.5,0.2-1,0.4l-0.2,0.1l1.1,3.4l1.7-0.5l0.7-2
		l1.2,3.9l-1.6-1.1l-2.5,0.8l1.6,5.1l0.6-0.2l-1.5-4.6l2-0.6l0.3,0.2l-2,0.6l1.4,4.4c1.2-0.4,2.1-0.8,2.5-1.1
		c0.5-0.3,0.8-0.8,0.9-1.4l0.2-1c0,0,0-0.1,0-0.2c0.4,0.6,0.7,1.1,1.1,1.4c0.4,0.3,0.9,0.7,1.6,1l-10.1,3.2l1-1.5l-1.3-4
		c-0.5,0.2-0.9,0.5-1.2,0.9l-0.2-0.1c0.3-0.4,0.7-0.7,1.3-1l-0.1-0.4c-0.1,0-0.2,0-0.2,0.1c-0.6,0.2-1.1,0.6-1.5,1.2
		c0-1.1,0.4-1.7,1.4-2l-1.2-3.9l-1.7-0.6L158.1,108.8L158.1,108.8z M158.7,109.3l0,0.1c-0.4,1.2-0.6,2.2-0.7,3l-0.2-0.1
		c0.1-1.1,0.3-2.1,0.7-3.1L158.7,109.3L158.7,109.3z M157,113.2l1.3,4l-0.3,0l-1.3-4L157,113.2L157,113.2z M163.3,119.8l-0.2,1
		l-9.9,3.2l-0.2-0.2l9.9-3.2l0.1-0.7c-1.1-0.5-2-1.2-2.7-2l0.3,0c0.6,0.7,1.4,1.3,2.4,1.8L163.3,119.8L163.3,119.8z M168,102.9
		l-1.1,2.2l-0.6,4.9l5.9,3.1l2.1,0.2l-4.2,2.5l0.4-1.6l-3.7-1.9l-0.5,4.3l2.4,0.9l-4.5,2.7l-0.3-0.1l4.1-2.5l-2.1-0.8l0.6-4.6
		l-0.4-0.2l-0.7,5l1.7,0.6l-3.7,2.2l1.2-2.4l0.8-5.9l-5-2.6l-2.2-0.2l4.3-2.6l-0.5,1.6l3.6,1.9l0.1-0.6l-3-1.5l0.4-1.4l0.2,0.1
		l-0.4,1.2l2.7,1.4l0.4-3.3l-1.7-0.5L168,102.9L168,102.9z M168.6,103.3l-1,1.9l-0.5,4.4l5.6,3l3.1,0.7l-5.1,3l-0.3-0.1l4.7-2.8
		l-2.6-0.6l-5.7-3l0.6-4.6l1-1.9L168.6,103.3L168.6,103.3z"/>
	<g>
		<g>
			<path class="st4" d="M167.9,23.3l-0.1-0.6l-0.2-0.6l-0.3-0.6L167,21l-0.4-0.5L166,20l-0.6-0.4l-0.7-0.4l-0.8-0.2l-0.9-0.2
				l-1.2-0.1l-1.2-0.1h-1l-0.3-0.8l-0.5-0.9l-0.6-0.8l-0.8-0.7l-0.7-0.5l-1.1-0.5l-1.1-0.4l-1.1-0.3l-1.1-0.1l-1.1-0.1l-1.2,0.1
				l-1.2,0.1l-1.2,0.2l-1.2,0.3l-1.2,0.4l-1.2,0.4l-1.2,0.5l-1.2,0.5l-1.2,0.6l-1.2,0.7l-1.2,0.7l-0.4,0.2l-0.2-0.1l-1.1-0.4
				l-1.1-0.4l-1.1-0.4l-1-0.4l-1-0.4l-1-0.4l-1-0.4l-1-0.3l-1-0.3l-0.9-0.3l-0.9-0.3l-0.9-0.2l-0.9-0.2l-0.9-0.2l-0.8-0.2l-0.8-0.1
				l-0.8-0.1l-0.8-0.1l-0.8-0.1l-0.7-0.1h-0.7l-0.7,0l-0.7,0.1l-0.7,0.1l-0.7,0.1l-0.6,0.1l-0.6,0.2l-0.6,0.2l-0.6,0.3l-0.6,0.3
				l-0.9,0.6l-0.7,0.7l-0.5,0.7l-0.3,0.6l0,0l-1,0.3l-0.9,0.4l-0.9,0.4l-0.8,0.5l-0.7,0.7l-0.6,0.7l-0.5,0.8l-0.4,0.9l-0.2,0.7
				l-0.1,0.7v0.7l0.1,0.6l0.2,0.6l0.3,0.5l0.4,0.5l0.4,0.4l0.5,0.4l0.6,0.4l0.6,0.3l0.7,0.3l0.8,0.2l0.8,0.2l0.9,0.1l0.9,0.1
				l0.9,0.1h1l1,0l1.1-0.1l1.1-0.1l1.1-0.1l1.1-0.2l1.1-0.2l1.2-0.3L122,27l1.2-0.4l1.1-0.4l1.1-0.4l1.1-0.5l1.1-0.5l1.1-0.6
				l0.2-0.1l0.2-0.1l0.2-0.1l0.2-0.1l0.2-0.1l0.2-0.1l0.2-0.1l0.2-0.1l0.7-0.4l0.7,0.3l0.7,0.3l0.7,0.3l0.7,0.3l0.8,0.3l0.8,0.3
				l0.8,0.3l0.8,0.3l0.8,0.3l0.8,0.3l0.3,0.1l0.2,0.1l-0.4,0.2l-0.8,0.4l-0.8,0.4l-0.8,0.4l-0.9,0.3l-0.9,0.3l-0.9,0.3l-0.9,0.3
				l-0.9,0.2l-0.9,0.2l-0.9,0.2l-0.9,0.1l-0.9,0.1l-0.9,0.1l-0.9,0h-0.9l-0.9,0l-0.9-0.1l-0.9-0.1l-0.9-0.2l-0.2-0.4l-0.2-0.3
				l-0.3-0.2l-0.3-0.1l-0.2,0h-0.2l-0.2,0.1l-0.2,0.2l-0.1,0.2v0.2l0.1,0.2l0.1,0.2l0.2,0.2l0.2,0.2l0.2,0.1l0.2,0.1l0.4,0.1
				l0.4,0.1l0.4,0.1l0.5,0.1l0.5,0.1l0.6,0h1.2l0.6,0l0.6-0.1l0.6-0.1l0.7-0.1l0.7-0.1l0.7-0.1l0.7-0.1l0.8-0.2l0.8-0.2l0.8-0.2
				l0.8-0.2l0.8-0.2l0.8-0.3l0.8-0.3l0.9-0.3l0.9-0.4l0.9-0.3l0.9-0.4l0.9-0.4l0.3-0.1l0.1,0.1l0.3,0.1l0.3,0.1l0.3,0.1l0.3,0.1
				l0.3,0.1l0.3,0.1l0.3,0.1l0.3,0.1l0.3,0.1l0.3,0.1l0.3,0.1l0.3,0.1l0.8,0.2l0.8,0.2l0.8,0.2l0.8,0.2l0.8,0.2l0.9,0.1l0.9,0.1
				l0.8,0.1l0.9,0.1l0.9,0.1l0.8,0.1l0.9,0.1l0.8,0.1l0.8,0l0.8,0h0.8l0.8,0l0.8,0l0.8-0.1l0.7-0.1l0.7-0.1l0.7-0.1l0.7-0.1l0.6-0.1
				l0.6-0.2l0.6-0.2l0.6-0.2l0.5-0.3l0.5-0.3l0.5-0.3l0.4-0.3l0.4-0.4l0.4-0.5l0.4-0.5l0.2-0.6l0.2-0.6l0.1-0.6L167.9,23.3z
				 M158.9,20l-0.2,0.7l-0.4,0.6l-0.6,0.5l-0.8,0.4l-0.9,0.3l-1,0.2l-1.2,0.1l-1.2,0.1h-1.2l-1.2-0.1l-1.2-0.1l-1-0.2l0.4-0.1l1-0.4
				l1-0.4l1-0.3l1-0.3l1-0.2l1-0.2l0.9-0.2l0.9-0.1l0.9-0.1l0.9-0.1l0.9-0.1l0.1,0L158.9,20z M139.9,18.5l1.1-0.5l1.1-0.4l1.1-0.4
				l1-0.4l1-0.4l1-0.3l1-0.3l1-0.3l0.9-0.2L150,15l0.9-0.1l0.9-0.1h0.8l0.8,0l0.8,0.1l0.7,0.2l0.7,0.2l0.6,0.3l0.6,0.4l0.5,0.4
				l0.5,0.5l0.4,0.6l0.4,0.7l0.1,0.4l-0.3,0l-1.1,0.1l-1.1,0.1l-1,0.2l-1,0.2l-1,0.3l-1,0.3l-0.9,0.4l-0.9,0.4l-0.9,0.4l-0.9,0.4
				l-0.9,0.4l-0.7,0.4l-0.1,0l-0.9-0.4l-0.4-0.2l-0.4-0.2l-0.4-0.1l-0.4-0.2l-0.4-0.2l-0.4-0.1l-0.4-0.2l-0.4-0.1l-0.4-0.2l-0.4-0.1
				l-0.4-0.1l-0.4-0.2l-0.4-0.1l-0.4-0.1l-0.4-0.2l-0.4-0.1l-0.8-0.3L139.9,18.5z M111.9,16l0.4-0.4l0.5-0.4l0.5-0.3l0.6-0.3
				l0.6-0.2l0.7-0.1l0.7-0.1l0.8,0l0.8,0l0.8,0.1l0.9,0.1l0.9,0.1l0.9,0.2l0.9,0.2l0.9,0.2l0.9,0.3l1,0.3l1,0.3l1,0.3l0.9,0.4l1,0.3
				l1,0.4l0.9,0.4l0.9,0.4l0.9,0.4l0.9,0.4l0.9,0.4l0.9,0.4l0.3,0.1l0,0l-0.2,0.1l-0.5,0.3l-0.5,0.3l-0.6,0.3l-0.6,0.3l-0.2,0.1
				l-1.3-0.5l-1.4-0.5l-1.4-0.5l-1.4-0.5l-1.4-0.4l-1.4-0.4l-1.4-0.4l-1.4-0.3l-1.4-0.3l-1.4-0.2l-1.4-0.2l-1.3-0.1l-1.3-0.1l-1.2,0
				l-1.2,0l-1,0.1l0.2-0.4L111.9,16z M128.5,23.6l-0.9,0.5l-0.9,0.4l-1,0.4l-1,0.4l-1,0.4l-1,0.4l-1,0.3l-1,0.3l-1,0.3l-1,0.2
				l-1,0.2l-1,0.1l-1,0.1l-1,0.1h-1l-0.8,0l-0.8-0.1l-0.8-0.1l-0.8-0.1l-0.8-0.1l-0.7-0.2l-0.7-0.2l-0.6-0.3l-0.6-0.4l-0.5-0.4
				l-0.5-0.4l-0.4-0.5l-0.3-0.5l-0.2-0.6l-0.1-0.7v-0.7l0.1-0.6l0.2-0.6l0.3-0.5l0.4-0.5l0.4-0.4l0.5-0.4l0.6-0.4l0.6-0.3l0.7-0.3
				l0.7-0.2l0.6-0.1v0.8l0.1,0.8l0.3,0.8l0.4,0.8l0.5,0.7l0.6,0.7l0.7,0.6l0.7,0.6l0.8,0.5l0.8,0.4l0.9,0.3l0.7,0.1l0.6,0.1l0.6,0.1
				l0.6,0l0.5-0.1l0.4-0.1l0.4-0.2l0.4-0.2l0.3-0.2l0.2-0.3l0.2-0.3l0.2-0.3l0.1-0.3l0.1-0.4l0.1-0.4l0.1-0.4v-0.5l-0.1-0.4
				l-0.2-0.3l-0.3-0.2l-0.3-0.1l-0.3-0.1l-0.3,0l-0.2,0.1l-0.2,0.1l-0.2,0.2l-0.1,0.3l0,0.3l0.1,0.3l0.2,0.2l0.4,0.1l0.5,0l0.1,0.4
				l0.1,0.4l-0.1,0.4l-0.1,0.3l-0.2,0.3l-0.3,0.2l-0.4,0.2l-0.4,0.1l-0.4,0.1l-0.5,0.1h-1l-0.5-0.1l-0.5-0.1l-0.4-0.2l-0.4-0.2
				l-0.3-0.1l-0.3-0.1l-0.3-0.1l-0.3-0.2l-0.3-0.2l-0.2-0.2l-0.2-0.2l-0.3-0.2l-0.5-0.4l-0.4-0.5l-0.4-0.5l-0.3-0.6l-0.2-0.6
				l-0.1-0.7l-0.1-0.7l0.1-0.8l0.1-0.4l0.6-0.1l0.7,0l0.7,0l0.7,0.1l0.9,0.1l0.9,0.1l0.9,0.1l0.8,0.2l0.8,0.2l0.8,0.2l0.8,0.2
				l0.8,0.2l0.8,0.2l0.8,0.2l0.8,0.2l0.7,0.2l0.8,0.3l0.7,0.2l0.7,0.3l0.7,0.3l0.7,0.3l0.7,0.3l0.7,0.3l0.7,0.3l0.7,0.3l0.1,0
				l-0.2,0.1l-0.6,0.3L128.5,23.6z M138.2,23.5l-1.2-0.5l-1.3-0.5l-1.3-0.5l-0.7-0.3l0.9-0.5l1.1-0.6l0.8-0.4l0,0l0.4,0.1l0.4,0.1
				l0.4,0.1l0.4,0.1l0.8,0.3l0.8,0.3l0.8,0.3L141,22l0.8,0.3l0.8,0.3l0.8,0.2l0.8,0.2l0.7,0.2l-0.2,0.1l-0.6,0.3l-0.6,0.3l-0.6,0.4
				l-0.7,0.4l-0.5,0.3l-0.1,0l-1.1-0.5l-1.2-0.5L138.2,23.5z M167.1,24l-0.1,0.4l-0.1,0.4l-0.2,0.4l-0.3,0.4l-0.4,0.3l-0.4,0.3
				l-0.5,0.3l-0.6,0.2l-0.6,0.2l-0.6,0.2l-0.7,0.2l-0.7,0.1l-0.8,0.1l-0.8,0.1l-0.8,0.1l-0.9,0.1l-0.9,0l-0.9,0l-0.9,0l-0.9,0
				l-1-0.1l-0.9-0.1l-1-0.1l-1-0.1l-0.9-0.1l-1-0.2l-0.9-0.2l-0.9-0.2l-0.9-0.2l-0.9-0.2l-0.9-0.3l-0.4-0.1l-0.4-0.1l-0.4-0.1
				l-0.4-0.1l-0.4-0.1l-0.4-0.1l0,0l0.5-0.2l0.9-0.5l0.9-0.5l0.9-0.5l0.3-0.1l0.1,0l0.8,0.2l0.8,0.2l0.8,0.1l0.7,0.1l0.7,0.1
				l0.7,0.1l0.7,0.1l0.7,0.1l0.7,0h0.6l0.6,0l0.6,0l0.6-0.1l0.6-0.1l0.5-0.1l0.5-0.1l0.4-0.2l0.4-0.2l0.4-0.2l0.4-0.3l0.3-0.3
				l0.3-0.4l0.7-1.3l0.3-1.2l0-0.1l0.7,0l0.8,0l0.8,0.1l0.7,0.1l0.7,0.1l0.6,0.2l0.6,0.2l0.5,0.2l0.5,0.3l0.4,0.3l0.4,0.4l0.3,0.4
				l0.2,0.4L167,23l0.1,0.5V24z"/>
		</g>
	</g>
</g>
</svg>
